<svg width="180" height="180" viewBox="0 0 180 180" fill="none" xmlns="http://www.w3.org/2000/svg">
  <rect width="180" height="180" rx="36" fill="#0A1F44"/>
  <!-- Shield shape -->
  <path d="M90 28L44 50V90C44 116.5 64 139.5 90 148C116 139.5 136 116.5 136 90V50L90 28Z" fill="#1a3a7a"/>
  <path d="M90 28L44 50V90C44 116.5 64 139.5 90 148C116 139.5 136 116.5 136 90V50L90 28Z" fill="url(#shieldGrad)" fill-opacity="0.8"/>
  <!-- QR corner marks -->
  <rect x="61" y="65" width="20" height="20" rx="3" fill="none" stroke="#4A7FD4" stroke-width="3.5"/>
  <rect x="65" y="69" width="12" height="12" rx="1.5" fill="#4A7FD4"/>
  <rect x="99" y="65" width="20" height="20" rx="3" fill="none" stroke="#4A7FD4" stroke-width="3.5"/>
  <rect x="103" y="69" width="12" height="12" rx="1.5" fill="#4A7FD4"/>
  <rect x="61" y="95" width="20" height="20" rx="3" fill="none" stroke="#4A7FD4" stroke-width="3.5"/>
  <rect x="65" y="99" width="12" height="12" rx="1.5" fill="#4A7FD4"/>
  <!-- QR dots -->
  <rect x="99" y="97" width="5" height="5" rx="1" fill="#7ab0f0"/>
  <rect x="107" y="97" width="5" height="5" rx="1" fill="#7ab0f0"/>
  <rect x="115" y="97" width="5" height="5" rx="1" fill="#7ab0f0"/>
  <rect x="99" y="105" width="5" height="5" rx="1" fill="#7ab0f0"/>
  <rect x="115" y="105" width="5" height="5" rx="1" fill="#7ab0f0"/>
  <rect x="99" y="113" width="5" height="5" rx="1" fill="#7ab0f0"/>
  <rect x="107" y="113" width="5" height="5" rx="1" fill="#7ab0f0"/>
  <rect x="115" y="113" width="5" height="5" rx="1" fill="#7ab0f0"/>
  <defs>
    <linearGradient id="shieldGrad" x1="90" y1="28" x2="90" y2="148" gradientUnits="userSpaceOnUse">
      <stop offset="0%" stop-color="#2F5DAA" stop-opacity="0.3"/>
      <stop offset="100%" stop-color="#0A1F44" stop-opacity="0"/>
    </linearGradient>
  </defs>
</svg>
